<?xml version="1.0" encoding="UTF-8" standalone="no"?>
<svg
   width="1024"
   height="1024"
   viewBox="0 0 1024 1024"
   style="fill-rule:evenodd"
   version="1.1"
   id="svg46"
   xml:space="preserve"
   xmlns:xlink="http://www.w3.org/1999/xlink"
   xmlns="http://www.w3.org/2000/svg"
   xmlns:svg="http://www.w3.org/2000/svg"><defs
     id="defs37"><linearGradient
       id="swatch55"><stop
         style="stop-color:#ffffff;stop-opacity:1;"
         offset="0"
         id="stop55" /></linearGradient><linearGradient
       id="swatch50"><stop
         style="stop-color:#e0e0e0;stop-opacity:1;"
         offset="0"
         id="stop50" /></linearGradient><linearGradient
       id="swatch48"><stop
         style="stop-color:#f63652;stop-opacity:1;"
         offset="0"
         id="stop48" /></linearGradient><linearGradient
       id="grad_7"
       x1="-208.974"
       y1="400.11099"
       x2="-116.768"
       y2="223.569"
       gradientUnits="userSpaceOnUse"><stop
         offset="0"
         stop-color="rgb(129,77,246)"
         id="stop1" /><stop
         offset="0.81389803"
         stop-color="rgb(154,73,245)"
         id="stop2"
         style="stop-color:#7c1af0;stop-opacity:1;" /><stop
         offset="0.99859351"
         stop-color="rgb(151,72,246)"
         id="stop3" /></linearGradient><linearGradient
       id="grad_5"
       x1="-45.492298"
       y1="33.904301"
       x2="236.785"
       y2="-176.47"
       gradientUnits="userSpaceOnUse"><stop
         offset="0"
         stop-color="rgb(0,138,232)"
         id="stop4" /><stop
         offset="0.0454545"
         stop-color="rgb(0,135,229)"
         id="stop5" /><stop
         offset="0.5"
         stop-color="rgb(0,137,231)"
         id="stop6" /><stop
         offset="0.590909"
         stop-color="rgb(0,139,233)"
         id="stop7" /><stop
         offset="0.863636"
         stop-color="rgb(0,148,243)"
         id="stop8" /><stop
         offset="1"
         stop-color="rgb(0,146,242)"
         id="stop9" /></linearGradient><linearGradient
       id="grad_6"
       x1="-192.84"
       y1="169.828"
       x2="297.698"
       y2="-262.173"
       gradientUnits="userSpaceOnUse"><stop
         offset="0"
         stop-color="rgb(251,57,159)"
         id="stop10" /><stop
         offset="0.0454545"
         stop-color="rgb(251,57,159)"
         id="stop11" /><stop
         offset="0.0909091"
         stop-color="rgb(252,57,156)"
         id="stop12" /><stop
         offset="0.136364"
         stop-color="rgb(251,60,147)"
         id="stop13" /><stop
         offset="0.181818"
         stop-color="rgb(252,67,135)"
         id="stop14" /><stop
         offset="0.227273"
         stop-color="rgb(252,73,120)"
         id="stop15" /><stop
         offset="0.318182"
         stop-color="rgb(253,86,83)"
         id="stop16" /><stop
         offset="0.409091"
         stop-color="rgb(252,99,48)"
         id="stop17" /><stop
         offset="0.454545"
         stop-color="rgb(252,105,29)"
         id="stop18" /><stop
         offset="0.5"
         stop-color="rgb(252,111,11)"
         id="stop19" /><stop
         offset="0.681818"
         stop-color="rgb(252,128,4)"
         id="stop20" /><stop
         offset="1"
         stop-color="rgb(252,132,7)"
         id="stop21" /></linearGradient><linearGradient
       id="grad_4"
       x1="32.161701"
       y1="436.552"
       x2="26.3353"
       y2="357.46701"
       gradientUnits="userSpaceOnUse"><stop
         offset="0"
         stop-color="rgb(42,49,67)"
         id="stop22" /><stop
         offset="0.0952381"
         stop-color="rgb(37,45,61)"
         id="stop23" /><stop
         offset="0.190476"
         stop-color="rgb(37,47,64)"
         id="stop24" /><stop
         offset="0.238095"
         stop-color="rgb(37,45,61)"
         id="stop25" /><stop
         offset="0.285714"
         stop-color="rgb(36,44,60)"
         id="stop26" /><stop
         offset="0.380952"
         stop-color="rgb(38,47,62)"
         id="stop27" /><stop
         offset="0.428571"
         stop-color="rgb(37,47,64)"
         id="stop28" /><stop
         offset="0.47619"
         stop-color="rgb(38,46,61)"
         id="stop29" /><stop
         offset="0.52381"
         stop-color="rgb(35,43,59)"
         id="stop30" /><stop
         offset="0.571429"
         stop-color="rgb(34,43,58)"
         id="stop31" /><stop
         offset="0.666667"
         stop-color="rgb(38,47,62)"
         id="stop32" /><stop
         offset="0.714286"
         stop-color="rgb(38,46,61)"
         id="stop33" /><stop
         offset="0.761905"
         stop-color="rgb(35,43,59)"
         id="stop34" /><stop
         offset="0.809524"
         stop-color="rgb(33,42,57)"
         id="stop35" /><stop
         offset="0.904762"
         stop-color="rgb(38,46,61)"
         id="stop36" /><stop
         offset="1"
         stop-color="rgb(36,43,57)"
         id="stop37" /></linearGradient><linearGradient
       xlink:href="#swatch55"
       id="linearGradient55"
       x1="378.9805"
       y1="628.44238"
       x2="921.13092"
       y2="628.44238"
       gradientUnits="userSpaceOnUse" /></defs><g
     id="g50"
     style="display:inline"
     transform="translate(-238.86073,-128)"><g
       id="g56"
       transform="translate(124.29561,39.3337)"><path
         id="rect46"
         style="fill:#ef1d27;fill-opacity:1;fill-rule:evenodd;stroke:none;stroke-width:0;stroke-dasharray:none;stroke-opacity:0.348367"
         d="M 0,203.88847 389.57388,433.42624 389.62538,945.3326 0,707.60291 Z"
         transform="translate(238.86073,128)" /><path
         id="path50"
         style="display:inline;fill:#f9f9f9;fill-opacity:1;fill-rule:evenodd;stroke-width:0.982878"
         d="m 24.0006,694.15234 c 113.875,69.47657 227.75,138.95313 341.625,208.42966 C 365.6087,750.76693 365.5917,598.95182 365.5748,447.13672 251.71674,380.05404 137.85867,312.97135 24.0006,245.88867 c 0,149.42123 0,298.84245 0,448.26367 z"
         transform="translate(238.86073,128)" /><path
         id="rect47"
         style="fill:#263a8f;fill-opacity:1;fill-rule:evenodd;stroke:#c7f9e6;stroke-width:0;stroke-dasharray:none;stroke-opacity:0.348367;paint-order:stroke fill markers"
         d="M 389.57388,433.42624 775.40877,203.88846 V 707.60291 L 389.62539,945.3326 Z"
         transform="translate(238.86073,128)" /><path
         d="M 751.4088,246.09961 C 638.79745,313.0944 526.18615,380.08919 413.57482,447.08398 c 0.0169,151.75456 0.0338,303.50908 0.0508,455.26372 112.5944,-69.38355 225.1888,-138.76697 337.7832,-208.15043 z"
         style="display:inline;fill:#f9f9f9;fill-rule:evenodd;stroke-width:1.03205;stroke-opacity:0.348367;paint-order:stroke fill markers"
         id="path55"
         transform="translate(238.86073,128)" /><path
         id="rect48"
         style="fill:#098245;fill-opacity:1;fill-rule:evenodd;stroke:none;stroke-width:0;stroke-dasharray:none;stroke-opacity:0.348367"
         d="M 0,203.88847 388.98027,0 775.40877,203.88846 389.57388,433.42624 Z"
         transform="translate(238.86073,128)" /><path
         id="path52"
         style="display:inline;fill:#f9f9f9;fill-rule:evenodd"
         d="M 49.35997,205.10742 C 162.74083,271.91667 276.12169,338.72591 389.50255,405.53516 501.78641,338.74154 614.07026,271.94792 726.35411,205.1543 613.88081,145.80859 501.4075,86.46289 388.93419,27.11719 275.74279,86.44727 162.55138,145.77734 49.35997,205.10742 Z"
         transform="translate(238.86073,128)" /><g
         id="g55"
         style="display:inline;fill-rule:evenodd"><path
           id="path53"
           style="display:inline;fill:url(#linearGradient55)"
           d="m 671.99219,363.95898 c -0.45257,0.23907 -0.79469,1.26236 -1.32875,0.92284 -3.80457,-2.20494 -7.92657,-4.28619 -12.42377,-4.34237 -2.65677,-0.13753 -5.20012,-0.18353 -7.8833,-0.22531 -25.54838,-0.35646 -51.09996,-0.16532 -76.6497,-0.11669 -63.90243,0.23252 -127.804,0.66817 -191.70667,0.83966 0,98.32422 0,196.64844 0,294.97266 -1.53156,3.5433 -0.78382,7.46318 -0.9512,11.1957 -0.0221,75.65026 -0.0443,151.30052 -0.0664,226.95078 46.91216,-46.92247 93.8239,-93.84537 140.73633,-140.76758 37.10939,37.21223 74.21875,74.42448 111.32813,111.63672 94.42252,-0.20443 188.84505,-0.40885 283.26757,-0.61328 -70.76801,-70.78174 -141.47827,-141.62143 -212.38758,-212.26172 -13.54451,-13.4623 -27.08998,-26.92446 -40.79796,-40.2207 71.7541,-71.82477 143.55829,-143.59653 215.2084,-215.52414 11.03155,-11.13996 21.97893,-22.36269 32.92831,-33.58328 -13.18895,-0.72135 -26.35607,-1.82105 -39.5498,-2.45816 -8.25061,-0.31211 -16.6765,-0.21928 -25.00098,-0.24302 -51.36742,-0.19457 -102.73539,-0.17415 -154.10311,-0.21329 -5.52227,-0.003 -11.04454,-0.006 -16.56681,-0.009 -1.35091,1.35351 -2.70182,2.70703 -4.05273,4.06054 z" /></g><path
         d="m 589.223,680 c 31.863,-31.625 58.247,-57.617 58.632,-57.759 0.384,-0.142 51.191,50.258 112.905,112 37.402,37.42 74.805,74.839 112.207,112.259 -38.745,0.085 -77.489,0.169 -116.234,0.254 -38.744,0.085 -77.488,0.169 -116.233,0.254 -18.202,-18.252 -36.403,-36.503 -54.605,-54.754 -18.201,-18.251 -36.403,-36.503 -54.604,-54.754 19.311,-19.167 38.622,-38.333 57.932,-57.5 z"
         fill="url(#grad_7)"
         id="path42"
         style="display:inline;fill:url(#grad_7)" /><path
         d="m 407.75,378.997 c 4.263,-0.001 62.241,-0.299 128.841,-0.662 76.573,-0.416 121.308,-0.308 121.681,0.296 0.324,0.525 -35.941,37.84 -80.591,82.922 -44.65,45.082 -102.893,103.997 -129.431,130.922 -16.083,16.319 -32.167,32.637 -48.25,48.955 0,-43.738 0,-87.476 0,-131.215 0,-43.738 0,-87.477 0,-131.215 2.583,-10e-4 5.167,-0.002 7.75,-0.003 z"
         fill="url(#grad_5)"
         id="path40"
         style="display:inline;fill:url(#grad_5)" /><path
         d="m 541.274,520.699 c 47.409,-47.6 94.817,-95.201 142.226,-142.801 31.25,0.017 62.5,0.034 93.75,0.051 51.562,0.028 93.75,0.178 93.75,0.334 0,0.155 -106.2,106.51 -236,236.342 -78.667,78.687 -157.333,157.373 -236,236.06 0.008,-31.198 0.016,-62.395 0.024,-93.593 0.008,-31.197 0.016,-62.394 0.024,-93.592 47.409,-47.6 94.818,-95.201 142.226,-142.801 z"
         fill="url(#grad_6)"
         id="path41"
         style="display:inline;fill:url(#grad_6)" /></g></g></svg>
